<svg width="48" height="48" viewBox="0 0 48 48" fill="none" xmlns="http://www.w3.org/2000/svg">
<rect width="48" height="48" fill="#323238"/>
<path d="M23.5 11C16.6067 11 11 16.6067 11 23.5C11 30.3933 16.6067 36 23.5 36C30.3933 36 36 30.3933 36 23.5C36 16.6067 30.3933 11 23.5 11ZM19.6957 28.9348H17.5217V20.7826H19.6957V28.9348ZM18.6087 19.1522C18.0079 19.1522 17.5217 18.666 17.5217 18.0652C17.5217 17.4644 18.0079 16.9783 18.6087 16.9783C19.2095 16.9783 19.6957 17.4644 19.6957 18.0652C19.6957 18.666 19.2095 19.1522 18.6087 19.1522ZM30.0217 28.9348H27.8478V24.8587C27.8478 23.8121 26.9923 22.9565 25.9457 22.9565C24.899 22.9565 24.0435 23.8121 24.0435 24.8587V28.9348H21.8696V20.7826H24.0435V21.7698C24.6782 21.1605 25.5402 20.7826 26.4891 20.7826C28.4401 20.7826 30.0217 22.3642 30.0217 24.3152V28.9348Z" fill="white"/>
</svg>
